STARTFONT 2.1
FONT -Bitstream-Charter-Medium-I-Normal--15-140-75-75-P-82-ISO8859-15
SIZE 14 75 75
FONTBOUNDINGBOX 16 18 -2 -3

STARTPROPERTIES 25
FONTNAME_REGISTRY ""
FAMILY_NAME "Charter"
FOUNDRY "Bitstream"
WEIGHT_NAME "Medium"
SETWIDTH_NAME "Normal"
SLANT "I"
ADD_STYLE_NAME ""
PIXEL_SIZE 15
POINT_SIZE 140
RESOLUTION_X 75
RESOLUTION_Y 75
SPACING "P"
AVERAGE_WIDTH 82
CHARSET_REGISTRY "ISO8859"
CHARSET_ENCODING "15"
CAP_HEIGHT 10
X_HEIGHT 7
CHARSET_COLLECTIONS "ASCII ISOLATIN1"
FACE_NAME "Bitstream Charter Italic"
COPYRIGHT "Copyright 1987 by Bitstream Inc. Charter Registered trademark of Bitstream Inc."
WEIGHT 10
QUAD_WIDTH 9
DEFAULT_CHAR 0
FONT_DESCENT 3
FONT_ASCENT 15
ENDPROPERTIES

CHARS 191

STARTCHAR space
ENCODING 32
SWIDTH 278 0
DWIDTH 4 0
BBX 1 1 0 0
BITMAP
00
ENDCHAR

STARTCHAR exclam
ENCODING 33
SWIDTH 338 0
DWIDTH 5 0
BBX 3 10 1 0
BITMAP
20
60
60
40
40
40
40
00
80
C0
ENDCHAR

STARTCHAR quotedbl
ENCODING 34
SWIDTH 331 0
DWIDTH 5 0
BBX 3 4 1 7
BITMAP
A0
A0
A0
A0
ENDCHAR

STARTCHAR numbersign
ENCODING 35
SWIDTH 745 0
DWIDTH 11 0
BBX 9 11 1 0
BITMAP
0900
0900
1200
7F80
1200
2400
FF00
2400
2800
4800
4800
ENDCHAR

STARTCHAR dollar
ENCODING 36
SWIDTH 556 0
DWIDTH 8 0
BBX 7 13 0 -1
BITMAP
08
08
1E
2A
4A
70
30
1C
14
94
9C
70
20
ENDCHAR

STARTCHAR percent
ENCODING 37
SWIDTH 852 0
DWIDTH 12 0
BBX 10 11 1 0
BITMAP
2080
5100
9100
9200
9480
A540
4A40
1240
2240
2280
4100
ENDCHAR

STARTCHAR ampersand
ENCODING 38
SWIDTH 704 0
DWIDTH 10 0
BBX 9 10 0 0
BITMAP
0C00
1200
2200
2600
3800
3980
4900
C600
C600
7980
ENDCHAR

STARTCHAR quoteright
ENCODING 39
SWIDTH 201 0
DWIDTH 3 0
BBX 2 4 1 7
BITMAP
C0
C0
40
80
ENDCHAR

STARTCHAR parenleft
ENCODING 40
SWIDTH 419 0
DWIDTH 6 0
BBX 6 13 1 -2
BITMAP
0C
10
20
40
40
C0
80
80
80
80
80
40
20
ENDCHAR

STARTCHAR parenright
ENCODING 41
SWIDTH 419 0
DWIDTH 6 0
BBX 5 13 -1 -2
BITMAP
30
10
08
08
08
08
08
08
10
10
20
20
C0
ENDCHAR

STARTCHAR asterisk
ENCODING 42
SWIDTH 500 0
DWIDTH 7 0
BBX 6 6 1 5
BITMAP
10
10
EC
30
50
D0
ENDCHAR

STARTCHAR plus
ENCODING 43
SWIDTH 833 0
DWIDTH 12 0
BBX 9 9 2 0
BITMAP
0800
0800
0800
0800
FF80
0800
0800
0800
0800
ENDCHAR

STARTCHAR comma
ENCODING 44
SWIDTH 278 0
DWIDTH 4 0
BBX 3 4 -1 -2
BITMAP
60
60
20
C0
ENDCHAR

STARTCHAR hyphen
ENCODING 45
SWIDTH 319 0
DWIDTH 5 0
BBX 4 1 0 4
BITMAP
F0
ENDCHAR

STARTCHAR period
ENCODING 46
SWIDTH 278 0
DWIDTH 4 0
BBX 2 2 0 0
BITMAP
C0
C0
ENDCHAR

STARTCHAR slash
ENCODING 47
SWIDTH 481 0
DWIDTH 7 0
BBX 9 11 -2 -1
BITMAP
0080
0100
0200
0400
0400
0800
1000
1000
2000
4000
8000
ENDCHAR

STARTCHAR zero
ENCODING 48
SWIDTH 556 0
DWIDTH 8 0
BBX 7 10 1 0
BITMAP
1C
22
42
C2
82
82
86
84
88
70
ENDCHAR

STARTCHAR one
ENCODING 49
SWIDTH 556 0
DWIDTH 8 0
BBX 5 10 1 0
BITMAP
18
78
18
10
10
10
30
20
20
F8
ENDCHAR

STARTCHAR two
ENCODING 50
SWIDTH 556 0
DWIDTH 8 0
BBX 7 10 0 0
BITMAP
1C
22
62
02
04
0C
18
22
42
FC
ENDCHAR

STARTCHAR three
ENCODING 51
SWIDTH 556 0
DWIDTH 8 0
BBX 7 10 0 0
BITMAP
1C
22
62
02
04
18
04
06
84
78
ENDCHAR

STARTCHAR four
ENCODING 52
SWIDTH 556 0
DWIDTH 8 0
BBX 8 10 0 0
BITMAP
02
06
0A
14
24
44
FF
04
08
08
ENDCHAR

STARTCHAR five
ENCODING 53
SWIDTH 556 0
DWIDTH 8 0
BBX 8 10 0 0
BITMAP
1F
20
20
20
3C
06
02
02
C4
78
ENDCHAR

STARTCHAR six
ENCODING 54
SWIDTH 556 0
DWIDTH 8 0
BBX 7 11 0 0
BITMAP
06
18
20
40
7C
C6
82
82
82
C4
78
ENDCHAR

STARTCHAR seven
ENCODING 55
SWIDTH 556 0
DWIDTH 8 0
BBX 9 10 0 0
BITMAP
7F80
4100
0200
0600
0C00
0800
1000
2000
2000
C000
ENDCHAR

STARTCHAR eight
ENCODING 56
SWIDTH 556 0
DWIDTH 8 0
BBX 7 10 0 0
BITMAP
1C
22
42
62
3C
4C
86
84
C4
78
ENDCHAR

STARTCHAR nine
ENCODING 57
SWIDTH 556 0
DWIDTH 8 0
BBX 7 10 1 0
BITMAP
3C
46
82
82
C6
7C
0C
18
60
80
ENDCHAR

STARTCHAR colon
ENCODING 58
SWIDTH 319 0
DWIDTH 5 0
BBX 3 7 1 0
BITMAP
60
60
00
00
00
C0
C0
ENDCHAR

STARTCHAR semicolon
ENCODING 59
SWIDTH 319 0
DWIDTH 5 0
BBX 4 9 0 -2
BITMAP
30
30
00
00
00
60
60
20
C0
ENDCHAR

STARTCHAR less
ENCODING 60
SWIDTH 833 0
DWIDTH 12 0
BBX 8 8 2 1
BITMAP
01
06
38
C0
C0
38
06
01
ENDCHAR

STARTCHAR equal
ENCODING 61
SWIDTH 833 0
DWIDTH 12 0
BBX 8 4 2 3
BITMAP
FF
00
00
FF
ENDCHAR

STARTCHAR greater
ENCODING 62
SWIDTH 833 0
DWIDTH 12 0
BBX 8 8 2 1
BITMAP
80
60
1C
03
03
1C
60
80
ENDCHAR

STARTCHAR question
ENCODING 63
SWIDTH 486 0
DWIDTH 7 0
BBX 5 10 1 0
BITMAP
70
C8
08
08
30
40
40
00
C0
C0
ENDCHAR

STARTCHAR at
ENCODING 64
SWIDTH 942 0
DWIDTH 14 0
BBX 12 13 1 -2
BITMAP
0F80
1040
2020
4790
8990
9190
9110
9120
9320
CDC0
4000
30C0
0F00
ENDCHAR

STARTCHAR A
ENCODING 65
SWIDTH 606 0
DWIDTH 9 0
BBX 10 10 -1 0
BITMAP
0200
0700
0500
0900
1100
1F00
2180
2180
4080
E1C0
ENDCHAR

STARTCHAR B
ENCODING 66
SWIDTH 588 0
DWIDTH 9 0
BBX 8 10 0 0
BITMAP
3E
11
11
32
3E
23
21
63
62
FC
ENDCHAR

STARTCHAR C
ENCODING 67
SWIDTH 604 0
DWIDTH 9 0
BBX 8 10 1 0
BITMAP
0E
31
41
C0
80
80
80
82
42
3C
ENDCHAR

STARTCHAR D
ENCODING 68
SWIDTH 671 0
DWIDTH 10 0
BBX 9 10 0 0
BITMAP
3E00
1100
3080
3080
2080
2080
2180
6100
6600
F800
ENDCHAR

STARTCHAR E
ENCODING 69
SWIDTH 546 0
DWIDTH 8 0
BBX 8 10 0 0
BITMAP
3F
11
30
24
3C
24
20
62
42
FE
ENDCHAR

STARTCHAR F
ENCODING 70
SWIDTH 509 0
DWIDTH 7 0
BBX 8 10 0 0
BITMAP
3F
11
30
24
3C
24
20
60
40
F0
ENDCHAR

STARTCHAR G
ENCODING 71
SWIDTH 664 0
DWIDTH 10 0
BBX 9 10 1 0
BITMAP
0F80
3080
6080
4000
8000
8780
8300
8200
4200
3C00
ENDCHAR

STARTCHAR H
ENCODING 72
SWIDTH 712 0
DWIDTH 10 0
BBX 11 10 0 0
BITMAP
38E0
1040
30C0
2080
3F80
2080
2080
6180
4100
E380
ENDCHAR

STARTCHAR I
ENCODING 73
SWIDTH 313 0
DWIDTH 4 0
BBX 5 10 0 0
BITMAP
38
10
30
20
20
20
20
60
40
E0
ENDCHAR

STARTCHAR J
ENCODING 74
SWIDTH 447 0
DWIDTH 6 0
BBX 7 10 -1 0
BITMAP
0E
04
0C
08
08
08
08
98
90
E0
ENDCHAR

STARTCHAR K
ENCODING 75
SWIDTH 625 0
DWIDTH 9 0
BBX 10 10 0 0
BITMAP
3BC0
1100
3200
3400
2800
3C00
2400
6600
4200
F380
ENDCHAR

STARTCHAR L
ENCODING 76
SWIDTH 498 0
DWIDTH 8 0
BBX 7 10 0 0
BITMAP
38
10
30
30
20
20
20
62
42
FE
ENDCHAR

STARTCHAR M
ENCODING 77
SWIDTH 839 0
DWIDTH 12 0
BBX 13 10 0 0
BITMAP
3838
1830
2870
28A0
28A0
2D20
2D20
4660
4640
E4E0
ENDCHAR

STARTCHAR N
ENCODING 78
SWIDTH 683 0
DWIDTH 10 0
BBX 11 10 0 0
BITMAP
30E0
1840
2840
2C80
2480
2680
2280
4380
4100
E100
ENDCHAR

STARTCHAR O
ENCODING 79
SWIDTH 708 0
DWIDTH 10 0
BBX 8 10 1 0
BITMAP
1C
22
41
C1
81
81
83
82
44
38
ENDCHAR

STARTCHAR P
ENCODING 80
SWIDTH 542 0
DWIDTH 8 0
BBX 8 10 0 0
BITMAP
3E
13
31
31
21
22
3C
60
60
E0
ENDCHAR

STARTCHAR Q
ENCODING 81
SWIDTH 708 0
DWIDTH 10 0
BBX 9 12 1 -2
BITMAP
1C00
2200
4100
C100
8100
8100
8300
8200
4400
3800
0C00
0780
ENDCHAR

STARTCHAR R
ENCODING 82
SWIDTH 602 0
DWIDTH 9 0
BBX 9 10 0 0
BITMAP
3E00
1300
1100
3100
2200
3C00
2600
6200
6200
F180
ENDCHAR

STARTCHAR S
ENCODING 83
SWIDTH 537 0
DWIDTH 8 0
BBX 8 10 0 0
BITMAP
0F
11
22
20
18
0E
02
42
C4
78
ENDCHAR

STARTCHAR T
ENCODING 84
SWIDTH 565 0
DWIDTH 8 0
BBX 8 10 1 0
BITMAP
FF
99
10
10
10
10
30
20
20
70
ENDCHAR

STARTCHAR U
ENCODING 85
SWIDTH 664 0
DWIDTH 9 0
BBX 9 10 1 0
BITMAP
E380
4100
4100
4100
C200
8200
8200
8200
8400
7800
ENDCHAR

STARTCHAR V
ENCODING 86
SWIDTH 590 0
DWIDTH 8 0
BBX 9 10 0 0
BITMAP
E380
4100
4100
4200
6400
2400
2800
2800
3000
3000
ENDCHAR

STARTCHAR W
ENCODING 87
SWIDTH 898 0
DWIDTH 13 0
BBX 13 10 1 0
BITMAP
E238
4210
4610
4720
4B20
6940
7140
7180
2180
2100
ENDCHAR

STARTCHAR X
ENCODING 88
SWIDTH 569 0
DWIDTH 8 0
BBX 10 10 -1 0
BITMAP
39C0
1080
0900
0A00
0C00
0C00
1600
2200
4200
E780
ENDCHAR

STARTCHAR Y
ENCODING 89
SWIDTH 563 0
DWIDTH 8 0
BBX 9 10 0 0
BITMAP
F380
4100
2200
2400
3800
1000
1000
3000
2000
7800
ENDCHAR

STARTCHAR Z
ENCODING 90
SWIDTH 556 0
DWIDTH 8 0
BBX 9 10 0 0
BITMAP
3F80
2100
0200
0600
0C00
1800
3000
2100
4200
FE00
ENDCHAR

STARTCHAR bracketleft
ENCODING 91
SWIDTH 421 0
DWIDTH 6 0
BBX 5 12 1 -1
BITMAP
38
20
20
40
40
40
40
40
40
80
80
E0
ENDCHAR

STARTCHAR backslash
ENCODING 92
SWIDTH 481 0
DWIDTH 7 0
BBX 7 11 0 -1
BITMAP
80
40
40
20
20
10
08
08
04
04
02
ENDCHAR

STARTCHAR bracketright
ENCODING 93
SWIDTH 421 0
DWIDTH 6 0
BBX 6 12 -1 -1
BITMAP
3C
04
0C
08
08
08
18
10
10
10
10
F0
ENDCHAR

STARTCHAR asciicircum
ENCODING 94
SWIDTH 1000 0
DWIDTH 15 0
BBX 9 4 3 7
BITMAP
1C00
3600
6300
8080
ENDCHAR

STARTCHAR underscore
ENCODING 95
SWIDTH 500 0
DWIDTH 7 0
BBX 7 1 0 -3
BITMAP
FE
ENDCHAR

STARTCHAR quoteleft
ENCODING 96
SWIDTH 201 0
DWIDTH 3 0
BBX 3 4 1 7
BITMAP
60
80
C0
C0
ENDCHAR

STARTCHAR a
ENCODING 97
SWIDTH 525 0
DWIDTH 8 0
BBX 7 7 0 0
BITMAP
3E
46
C4
84
8C
98
6E
ENDCHAR

STARTCHAR b
ENCODING 98
SWIDTH 507 0
DWIDTH 7 0
BBX 6 12 0 0
BITMAP
E0
60
60
40
40
58
64
44
84
8C
88
70
ENDCHAR

STARTCHAR c
ENCODING 99
SWIDTH 394 0
DWIDTH 6 0
BBX 5 7 0 0
BITMAP
18
68
C0
80
80
88
70
ENDCHAR

STARTCHAR d
ENCODING 100
SWIDTH 523 0
DWIDTH 8 0
BBX 7 12 0 0
BITMAP
0E
02
02
04
04
1C
64
44
84
8C
98
6E
ENDCHAR

STARTCHAR e
ENCODING 101
SWIDTH 424 0
DWIDTH 6 0
BBX 5 7 0 0
BITMAP
30
48
90
E0
80
88
70
ENDCHAR

STARTCHAR f
ENCODING 102
SWIDTH 292 0
DWIDTH 4 0
BBX 8 15 -2 -3
BITMAP
03
05
08
08
08
1E
08
18
10
10
10
10
10
20
C0
ENDCHAR

STARTCHAR g
ENCODING 103
SWIDTH 481 0
DWIDTH 7 0
BBX 7 10 0 -3
BITMAP
1A
64
4C
30
20
30
DC
84
84
78
ENDCHAR

STARTCHAR h
ENCODING 104
SWIDTH 551 0
DWIDTH 8 0
BBX 8 12 0 0
BITMAP
70
30
20
20
20
2E
72
62
46
44
44
C7
ENDCHAR

STARTCHAR i
ENCODING 105
SWIDTH 287 0
DWIDTH 4 0
BBX 3 12 1 0
BITMAP
20
60
00
00
00
C0
40
40
C0
80
80
E0
ENDCHAR

STARTCHAR j
ENCODING 106
SWIDTH 269 0
DWIDTH 4 0
BBX 6 15 -2 -3
BITMAP
0C
0C
00
00
00
38
08
08
08
18
10
10
10
20
C0
ENDCHAR

STARTCHAR k
ENCODING 107
SWIDTH 514 0
DWIDTH 7 0
BBX 6 12 0 0
BITMAP
60
20
20
20
40
4C
54
60
50
50
58
8C
ENDCHAR

STARTCHAR l
ENCODING 108
SWIDTH 275 0
DWIDTH 4 0
BBX 3 12 0 0
BITMAP
E0
20
60
40
40
40
40
40
80
80
80
E0
ENDCHAR

STARTCHAR m
ENCODING 109
SWIDTH 815 0
DWIDTH 12 0
BBX 11 7 1 0
BITMAP
DDC0
6640
4440
44C0
4480
C880
88E0
ENDCHAR

STARTCHAR n
ENCODING 110
SWIDTH 556 0
DWIDTH 8 0
BBX 7 7 1 0
BITMAP
DC
64
44
44
48
88
8E
ENDCHAR

STARTCHAR o
ENCODING 111
SWIDTH 502 0
DWIDTH 7 0
BBX 6 7 0 0
BITMAP
38
44
84
84
84
88
70
ENDCHAR

STARTCHAR p
ENCODING 112
SWIDTH 516 0
DWIDTH 8 0
BBX 8 10 -1 -3
BITMAP
3F
11
31
21
23
22
3C
60
40
F0
ENDCHAR

STARTCHAR q
ENCODING 113
SWIDTH 512 0
DWIDTH 7 0
BBX 6 10 0 -3
BITMAP
1C
64
C4
84
88
98
68
08
08
3C
ENDCHAR

STARTCHAR r
ENCODING 114
SWIDTH 398 0
DWIDTH 6 0
BBX 6 7 0 0
BITMAP
EC
54
60
40
40
C0
80
ENDCHAR

STARTCHAR s
ENCODING 115
SWIDTH 370 0
DWIDTH 6 0
BBX 5 7 0 0
BITMAP
38
48
60
30
18
90
60
ENDCHAR

STARTCHAR t
ENCODING 116
SWIDTH 333 0
DWIDTH 5 0
BBX 4 9 1 0
BITMAP
40
40
F0
40
40
80
80
80
E0
ENDCHAR

STARTCHAR u
ENCODING 117
SWIDTH 553 0
DWIDTH 8 0
BBX 6 7 1 0
BITMAP
C4
44
48
88
88
98
EC
ENDCHAR

STARTCHAR v
ENCODING 118
SWIDTH 454 0
DWIDTH 7 0
BBX 7 7 0 0
BITMAP
E6
22
24
24
28
30
20
ENDCHAR

STARTCHAR w
ENCODING 119
SWIDTH 713 0
DWIDTH 10 0
BBX 10 7 0 0
BITMAP
C440
4440
4C40
4C80
5500
6500
6600
ENDCHAR

STARTCHAR x
ENCODING 120
SWIDTH 477 0
DWIDTH 7 0
BBX 8 7 -1 0
BITMAP
73
15
18
18
18
A8
C6
ENDCHAR

STARTCHAR y
ENCODING 121
SWIDTH 475 0
DWIDTH 7 0
BBX 9 10 -2 -3
BITMAP
7180
1100
1200
0A00
0C00
0C00
0800
0800
9000
E000
ENDCHAR

STARTCHAR z
ENCODING 122
SWIDTH 440 0
DWIDTH 7 0
BBX 7 7 0 0
BITMAP
3A
44
48
10
24
44
BC
ENDCHAR

STARTCHAR braceleft
ENCODING 123
SWIDTH 486 0
DWIDTH 7 0
BBX 5 12 1 -1
BITMAP
18
20
20
20
20
C0
20
20
20
20
20
18
ENDCHAR

STARTCHAR bar
ENCODING 124
SWIDTH 500 0
DWIDTH 7 0
BBX 1 15 3 -3
BITMAP
80
80
80
80
80
80
80
80
80
80
80
80
80
80
80
ENDCHAR

STARTCHAR braceright
ENCODING 125
SWIDTH 486 0
DWIDTH 7 0
BBX 5 12 1 -1
BITMAP
C0
20
20
20
20
18
20
20
20
20
20
C0
ENDCHAR

STARTCHAR c0126
ENCODING 126
SWIDTH 1000 0
DWIDTH 15 0
BBX 9 2 3 8
BITMAP
3880
CF00
ENDCHAR

STARTCHAR space
ENCODING 160
SWIDTH 278 0
DWIDTH 4 0
BBX 1 1 0 0
BITMAP
00
ENDCHAR

STARTCHAR exclamdown
ENCODING 161
SWIDTH 338 0
DWIDTH 5 0
BBX 3 10 1 0
BITMAP
60
20
00
40
40
40
40
C0
C0
80
ENDCHAR

STARTCHAR cent
ENCODING 162
SWIDTH 556 0
DWIDTH 8 0
BBX 6 11 1 -1
BITMAP
08
10
1C
74
50
90
90
A0
E8
78
20
ENDCHAR

STARTCHAR sterling
ENCODING 163
SWIDTH 556 0
DWIDTH 8 0
BBX 8 10 0 0
BITMAP
07
0B
10
10
30
7C
20
20
40
FE
ENDCHAR

STARTCHAR EuroSign
ENCODING 164
SWIDTH 500 0
DWIDTH 7 0
BBX 8 10 0 0
BITMAP
0F
32
40
F8
40
F0
40
40
44
38
ENDCHAR

STARTCHAR yen
ENCODING 165
SWIDTH 556 0
DWIDTH 8 0
BBX 9 10 0 0
BITMAP
7380
2100
2200
3400
F700
1800
FF00
1000
1000
7800
ENDCHAR

STARTCHAR Scaron
ENCODING 166
SWIDTH 537 0
DWIDTH 8 0
BBX 8 14 0 0
BITMAP
12
0A
04
00
0F
11
22
20
18
0E
02
42
C4
78
ENDCHAR

STARTCHAR section
ENCODING 167
SWIDTH 500 0
DWIDTH 7 0
BBX 7 13 0 -2
BITMAP
1E
22
24
30
38
44
44
48
30
18
88
88
70
ENDCHAR

STARTCHAR scaron
ENCODING 168
SWIDTH 370 0
DWIDTH 6 0
BBX 5 11 0 0
BITMAP
48
28
10
00
38
48
60
30
18
90
60
ENDCHAR

STARTCHAR copyright
ENCODING 169
SWIDTH 900 0
DWIDTH 13 0
BBX 11 12 1 0
BITMAP
1E00
2180
4E40
5240
A220
A020
A020
A220
5240
4E40
2180
1E00
ENDCHAR

STARTCHAR ordfeminine
ENCODING 170
SWIDTH 394 0
DWIDTH 6 0
BBX 5 5 0 4
BITMAP
38
48
88
90
78
ENDCHAR

STARTCHAR guillemotleft
ENCODING 171
SWIDTH 442 0
DWIDTH 6 0
BBX 5 5 0 2
BITMAP
28
50
A0
90
50
ENDCHAR

STARTCHAR logicalnot
ENCODING 172
SWIDTH 833 0
DWIDTH 12 0
BBX 8 4 2 3
BITMAP
FF
01
01
01
ENDCHAR

STARTCHAR hyphen
ENCODING 173
SWIDTH 319 0
DWIDTH 5 0
BBX 4 1 0 4
BITMAP
F0
ENDCHAR

STARTCHAR registered
ENCODING 174
SWIDTH 900 0
DWIDTH 13 0
BBX 11 12 1 0
BITMAP
0E00
1180
2040
5E40
4940
8920
8E20
8920
5DC0
2040
1180
0E00
ENDCHAR

STARTCHAR macron
ENCODING 175
SWIDTH 500 0
DWIDTH 7 0
BBX 4 1 2 10
BITMAP
F0
ENDCHAR

STARTCHAR degree
ENCODING 176
SWIDTH 329 0
DWIDTH 5 0
BBX 4 4 1 7
BITMAP
60
90
90
60
ENDCHAR

STARTCHAR plusminus
ENCODING 177
SWIDTH 833 0
DWIDTH 12 0
BBX 9 8 2 1
BITMAP
0800
0800
FF80
0800
0800
0000
0000
FF80
ENDCHAR

STARTCHAR twosuperior
ENCODING 178
SWIDTH 367 0
DWIDTH 5 0
BBX 6 6 -1 4
BITMAP
18
24
04
18
24
F8
ENDCHAR

STARTCHAR threesuperior
ENCODING 179
SWIDTH 367 0
DWIDTH 5 0
BBX 5 6 0 4
BITMAP
30
48
18
30
18
E0
ENDCHAR

STARTCHAR Zcaron
ENCODING 180
SWIDTH 556 0
DWIDTH 8 0
BBX 9 14 0 0
BITMAP
0900
0500
0200
0000
3F80
2100
0200
0600
0C00
1800
3000
2100
4200
FE00
ENDCHAR

STARTCHAR mu
ENCODING 181
SWIDTH 548 0
DWIDTH 8 0
BBX 9 9 -1 -3
BITMAP
2200
2200
6200
4600
6680
7B00
C000
8000
8000
ENDCHAR

STARTCHAR paragraph
ENCODING 182
SWIDTH 484 0
DWIDTH 7 0
BBX 7 11 0 -1
BITMAP
3E
74
F4
F4
F4
74
04
04
04
04
04
ENDCHAR

STARTCHAR periodcentered
ENCODING 183
SWIDTH 278 0
DWIDTH 4 0
BBX 2 2 1 5
BITMAP
C0
C0
ENDCHAR

STARTCHAR zcaron
ENCODING 184
SWIDTH 440 0
DWIDTH 7 0
BBX 7 11 0 0
BITMAP
12
0A
04
00
3A
44
48
10
24
44
BC
ENDCHAR

STARTCHAR onesuperior
ENCODING 185
SWIDTH 367 0
DWIDTH 5 0
BBX 3 6 1 4
BITMAP
20
60
20
40
40
E0
ENDCHAR

STARTCHAR ordmasculine
ENCODING 186
SWIDTH 377 0
DWIDTH 5 0
BBX 4 5 0 4
BITMAP
20
50
90
A0
40
ENDCHAR

STARTCHAR guillemotright
ENCODING 187
SWIDTH 442 0
DWIDTH 7 0
BBX 6 5 0 2
BITMAP
48
6C
24
48
90
ENDCHAR

STARTCHAR Ligature_OE
ENCODING 188
SWIDTH 928 0
DWIDTH 13 0
BBX 12 10 1 0
BITMAP
0FF0
3110
4250
4240
83C0
8280
8480
8420
C440
3FC0
ENDCHAR

STARTCHAR Ligature_oe
ENCODING 189
SWIDTH 642 0
DWIDTH 9 0
BBX 8 7 0 0
BITMAP
3B
4D
49
8A
9C
99
6E
ENDCHAR

STARTCHAR Ydiaeresis
ENCODING 190
SWIDTH 563 0
DWIDTH 8 0
BBX 9 13 0 0
BITMAP
0A00
0A00
0000
F380
4100
2200
2400
3800
1000
1000
3000
2000
7800
ENDCHAR

STARTCHAR questiondown
ENCODING 191
SWIDTH 486 0
DWIDTH 7 0
BBX 5 10 0 0
BITMAP
18
08
00
10
10
20
40
80
D8
70
ENDCHAR

STARTCHAR Agrave
ENCODING 192
SWIDTH 606 0
DWIDTH 9 0
BBX 10 14 -1 0
BITMAP
0400
0200
0200
0000
0200
0700
0500
0900
1100
1F00
2180
2180
4080
E1C0
ENDCHAR

STARTCHAR Aacute
ENCODING 193
SWIDTH 606 0
DWIDTH 9 0
BBX 10 14 -1 0
BITMAP
0180
0100
0200
0000
0200
0700
0500
0900
1100
1F00
2180
2180
4080
E1C0
ENDCHAR

STARTCHAR Acircumflex
ENCODING 194
SWIDTH 606 0
DWIDTH 9 0
BBX 10 14 -1 0
BITMAP
0200
0500
0900
0000
0200
0700
0500
0900
1100
1F00
2180
2180
4080
E1C0
ENDCHAR

STARTCHAR Atilde
ENCODING 195
SWIDTH 606 0
DWIDTH 9 0
BBX 10 13 -1 0
BITMAP
0680
0B00
0000
0200
0700
0500
0900
1100
1F00
2180
2180
4080
E1C0
ENDCHAR

STARTCHAR Adieresis
ENCODING 196
SWIDTH 606 0
DWIDTH 9 0
BBX 10 13 -1 0
BITMAP
0500
0500
0000
0200
0700
0500
0900
1100
1F00
2180
2180
4080
E1C0
ENDCHAR

STARTCHAR Aring
ENCODING 197
SWIDTH 606 0
DWIDTH 9 0
BBX 10 15 -1 0
BITMAP
0300
0480
0480
0300
0000
0200
0700
0500
0900
1100
1F00
2180
2180
4080
E1C0
ENDCHAR

STARTCHAR AE
ENCODING 198
SWIDTH 873 0
DWIDTH 12 0
BBX 14 10 -2 0
BITMAP
03FC
01C4
0280
0490
08F0
0F90
1180
2108
4108
E3F8
ENDCHAR

STARTCHAR Ccedilla
ENCODING 199
SWIDTH 604 0
DWIDTH 9 0
BBX 8 13 1 -3
BITMAP
0E
31
41
C0
80
80
80
82
42
3C
18
08
30
ENDCHAR

STARTCHAR Egrave
ENCODING 200
SWIDTH 546 0
DWIDTH 8 0
BBX 8 14 0 0
BITMAP
08
04
04
00
3F
11
30
24
3C
24
20
62
42
FE
ENDCHAR

STARTCHAR Eacute
ENCODING 201
SWIDTH 546 0
DWIDTH 8 0
BBX 8 14 0 0
BITMAP
03
02
04
00
3F
11
30
24
3C
24
20
62
42
FE
ENDCHAR

STARTCHAR Ecircumflex
ENCODING 202
SWIDTH 546 0
DWIDTH 8 0
BBX 8 14 0 0
BITMAP
04
0A
12
00
3F
11
30
24
3C
24
20
62
42
FE
ENDCHAR

STARTCHAR Edieresis
ENCODING 203
SWIDTH 546 0
DWIDTH 8 0
BBX 8 13 0 0
BITMAP
0A
0A
00
3F
11
30
24
3C
24
20
62
42
FE
ENDCHAR

STARTCHAR Igrave
ENCODING 204
SWIDTH 313 0
DWIDTH 4 0
BBX 5 14 0 0
BITMAP
20
10
10
00
38
10
30
20
20
20
20
60
40
E0
ENDCHAR

STARTCHAR Iacute
ENCODING 205
SWIDTH 313 0
DWIDTH 4 0
BBX 6 14 0 0
BITMAP
0C
08
10
00
38
10
30
20
20
20
20
60
40
E0
ENDCHAR

STARTCHAR Icircumflex
ENCODING 206
SWIDTH 313 0
DWIDTH 4 0
BBX 5 14 0 0
BITMAP
10
28
48
00
38
10
30
20
20
20
20
60
40
E0
ENDCHAR

STARTCHAR Idieresis
ENCODING 207
SWIDTH 313 0
DWIDTH 4 0
BBX 5 13 0 0
BITMAP
28
28
00
38
10
30
20
20
20
20
60
40
E0
ENDCHAR

STARTCHAR Eth
ENCODING 208
SWIDTH 671 0
DWIDTH 10 0
BBX 9 10 0 0
BITMAP
3E00
1100
3080
2080
7880
2080
2180
6100
6600
F800
ENDCHAR

STARTCHAR Ntilde
ENCODING 209
SWIDTH 683 0
DWIDTH 10 0
BBX 11 13 0 0
BITMAP
0680
0B00
0000
30E0
1840
2840
2C80
2480
2680
2280
4380
4100
E100
ENDCHAR

STARTCHAR Ograve
ENCODING 210
SWIDTH 708 0
DWIDTH 10 0
BBX 8 14 1 0
BITMAP
08
04
04
00
1C
22
41
C1
81
81
83
82
44
38
ENDCHAR

STARTCHAR Oacute
ENCODING 211
SWIDTH 708 0
DWIDTH 10 0
BBX 8 14 1 0
BITMAP
03
02
04
00
1C
22
41
C1
81
81
83
82
44
38
ENDCHAR

STARTCHAR Ocircumflex
ENCODING 212
SWIDTH 708 0
DWIDTH 10 0
BBX 8 14 1 0
BITMAP
04
0A
12
00
1C
22
41
C1
81
81
83
82
44
38
ENDCHAR

STARTCHAR Otilde
ENCODING 213
SWIDTH 708 0
DWIDTH 10 0
BBX 8 13 1 0
BITMAP
0D
16
00
1C
22
41
C1
81
81
83
82
44
38
ENDCHAR

STARTCHAR Odieresis
ENCODING 214
SWIDTH 708 0
DWIDTH 10 0
BBX 8 13 1 0
BITMAP
0A
0A
00
1C
22
41
C1
81
81
83
82
44
38
ENDCHAR

STARTCHAR multiply
ENCODING 215
SWIDTH 833 0
DWIDTH 12 0
BBX 8 8 2 1
BITMAP
81
42
24
18
18
24
42
81
ENDCHAR

STARTCHAR Oslash
ENCODING 216
SWIDTH 708 0
DWIDTH 10 0
BBX 8 13 1 -1
BITMAP
00
02
1E
22
45
C9
89
91
A3
A2
44
78
80
ENDCHAR

STARTCHAR Ugrave
ENCODING 217
SWIDTH 664 0
DWIDTH 9 0
BBX 9 14 1 0
BITMAP
1000
0800
0800
0000
E380
4100
4100
4100
C200
8200
8200
8200
8400
7800
ENDCHAR

STARTCHAR Uacute
ENCODING 218
SWIDTH 664 0
DWIDTH 9 0
BBX 9 14 1 0
BITMAP
0600
0400
0800
0000
E380
4100
4100
4100
C200
8200
8200
8200
8400
7800
ENDCHAR

STARTCHAR Ucircumflex
ENCODING 219
SWIDTH 664 0
DWIDTH 9 0
BBX 9 14 1 0
BITMAP
0800
1400
2400
0000
E380
4100
4100
4100
C200
8200
8200
8200
8400
7800
ENDCHAR

STARTCHAR Udieresis
ENCODING 220
SWIDTH 664 0
DWIDTH 9 0
BBX 9 13 1 0
BITMAP
1400
1400
0000
E380
4100
4100
4100
C200
8200
8200
8200
8400
7800
ENDCHAR

STARTCHAR Yacute
ENCODING 221
SWIDTH 563 0
DWIDTH 8 0
BBX 9 14 0 0
BITMAP
0600
0400
0800
0000
F380
4100
2200
2400
3800
1000
1000
3000
2000
7800
ENDCHAR

STARTCHAR Thorn
ENCODING 222
SWIDTH 532 0
DWIDTH 8 0
BBX 8 10 0 0
BITMAP
3C
10
1E
31
31
21
22
3C
60
F0
ENDCHAR

STARTCHAR germandbls
ENCODING 223
SWIDTH 574 0
DWIDTH 9 0
BBX 10 15 -2 -3
BITMAP
0380
0440
0440
0840
09C0
0A00
0A00
1980
10C0
1640
1480
1300
1000
2000
C000
ENDCHAR

STARTCHAR agrave
ENCODING 224
SWIDTH 525 0
DWIDTH 8 0
BBX 7 12 0 0
BITMAP
10
08
08
00
00
3E
46
C4
84
8C
98
6E
ENDCHAR

STARTCHAR aacute
ENCODING 225
SWIDTH 525 0
DWIDTH 8 0
BBX 7 12 0 0
BITMAP
06
04
08
00
00
3E
46
C4
84
8C
98
6E
ENDCHAR

STARTCHAR acircumflex
ENCODING 226
SWIDTH 525 0
DWIDTH 8 0
BBX 7 12 0 0
BITMAP
08
14
24
00
00
3E
46
C4
84
8C
98
6E
ENDCHAR

STARTCHAR atilde
ENCODING 227
SWIDTH 525 0
DWIDTH 8 0
BBX 7 11 0 0
BITMAP
1A
2C
00
00
3E
46
C4
84
8C
98
6E
ENDCHAR

STARTCHAR adieresis
ENCODING 228
SWIDTH 525 0
DWIDTH 8 0
BBX 7 11 0 0
BITMAP
14
14
00
00
3E
46
C4
84
8C
98
6E
ENDCHAR

STARTCHAR aring
ENCODING 229
SWIDTH 525 0
DWIDTH 8 0
BBX 7 12 0 0
BITMAP
18
14
14
18
00
3E
46
C4
84
8C
98
6E
ENDCHAR

STARTCHAR ae
ENCODING 230
SWIDTH 671 0
DWIDTH 10 0
BBX 9 7 0 0
BITMAP
3B00
4C80
0980
3E00
C800
9880
E700
ENDCHAR

STARTCHAR ccedilla
ENCODING 231
SWIDTH 394 0
DWIDTH 6 0
BBX 5 10 0 -3
BITMAP
18
68
C0
80
80
88
70
60
20
C0
ENDCHAR

STARTCHAR egrave
ENCODING 232
SWIDTH 424 0
DWIDTH 6 0
BBX 5 12 0 0
BITMAP
10
08
08
00
00
30
48
90
E0
80
88
70
ENDCHAR

STARTCHAR eacute
ENCODING 233
SWIDTH 424 0
DWIDTH 6 0
BBX 7 12 0 0
BITMAP
06
04
08
00
00
30
48
90
E0
80
88
70
ENDCHAR

STARTCHAR ecircumflex
ENCODING 234
SWIDTH 424 0
DWIDTH 6 0
BBX 6 12 0 0
BITMAP
08
14
24
00
00
30
48
90
E0
80
88
70
ENDCHAR

STARTCHAR edieresis
ENCODING 235
SWIDTH 424 0
DWIDTH 6 0
BBX 6 11 0 0
BITMAP
14
14
00
00
30
48
90
E0
80
88
70
ENDCHAR

STARTCHAR igrave
ENCODING 236
SWIDTH 287 0
DWIDTH 4 0
BBX 3 12 1 0
BITMAP
80
40
40
00
00
C0
40
40
80
80
80
E0
ENDCHAR

STARTCHAR iacute
ENCODING 237
SWIDTH 287 0
DWIDTH 4 0
BBX 4 12 1 0
BITMAP
30
20
40
00
00
C0
40
40
80
80
80
E0
ENDCHAR

STARTCHAR icircumflex
ENCODING 238
SWIDTH 287 0
DWIDTH 4 0
BBX 4 12 0 0
BITMAP
20
50
90
00
00
60
20
20
40
40
40
70
ENDCHAR

STARTCHAR idieresis
ENCODING 239
SWIDTH 287 0
DWIDTH 4 0
BBX 3 11 1 0
BITMAP
A0
A0
00
00
C0
40
40
80
80
80
E0
ENDCHAR

STARTCHAR eth
ENCODING 240
SWIDTH 500 0
DWIDTH 7 0
BBX 6 12 0 0
BITMAP
30
14
18
68
08
3C
44
84
84
84
88
70
ENDCHAR

STARTCHAR ntilde
ENCODING 241
SWIDTH 556 0
DWIDTH 8 0
BBX 7 11 1 0
BITMAP
34
58
00
00
DC
64
44
44
48
88
8E
ENDCHAR

STARTCHAR ograve
ENCODING 242
SWIDTH 502 0
DWIDTH 7 0
BBX 6 12 0 0
BITMAP
10
08
08
00
00
38
44
84
84
84
88
70
ENDCHAR

STARTCHAR oacute
ENCODING 243
SWIDTH 502 0
DWIDTH 7 0
BBX 7 12 0 0
BITMAP
06
04
08
00
00
38
44
84
84
84
88
70
ENDCHAR

STARTCHAR ocircumflex
ENCODING 244
SWIDTH 502 0
DWIDTH 7 0
BBX 6 12 0 0
BITMAP
08
14
24
00
00
38
44
84
84
84
88
70
ENDCHAR

STARTCHAR otilde
ENCODING 245
SWIDTH 502 0
DWIDTH 7 0
BBX 7 11 0 0
BITMAP
1A
2C
00
00
38
44
84
84
84
88
70
ENDCHAR

STARTCHAR odieresis
ENCODING 246
SWIDTH 502 0
DWIDTH 7 0
BBX 6 11 0 0
BITMAP
14
14
00
00
38
44
84
84
84
88
70
ENDCHAR

STARTCHAR divide
ENCODING 247
SWIDTH 833 0
DWIDTH 12 0
BBX 8 7 2 2
BITMAP
18
18
00
FF
00
18
18
ENDCHAR

STARTCHAR oslash
ENCODING 248
SWIDTH 502 0
DWIDTH 7 0
BBX 6 9 0 -1
BITMAP
04
38
4C
94
94
A4
C8
70
80
ENDCHAR

STARTCHAR ugrave
ENCODING 249
SWIDTH 553 0
DWIDTH 8 0
BBX 6 12 1 0
BITMAP
20
10
10
00
00
C4
44
48
88
88
98
EC
ENDCHAR

STARTCHAR uacute
ENCODING 250
SWIDTH 553 0
DWIDTH 8 0
BBX 6 12 1 0
BITMAP
0C
08
10
00
00
C4
44
48
88
88
98
EC
ENDCHAR

STARTCHAR ucircumflex
ENCODING 251
SWIDTH 553 0
DWIDTH 8 0
BBX 6 12 1 0
BITMAP
10
28
48
00
00
C4
44
48
88
88
98
EC
ENDCHAR

STARTCHAR udieresis
ENCODING 252
SWIDTH 553 0
DWIDTH 8 0
BBX 6 11 1 0
BITMAP
28
28
00
00
C4
44
48
88
88
98
EC
ENDCHAR

STARTCHAR yacute
ENCODING 253
SWIDTH 475 0
DWIDTH 7 0
BBX 9 15 -2 -3
BITMAP
0180
0100
0200
0000
0000
7180
1100
1200
0A00
0C00
0C00
0800
0800
9000
E000
ENDCHAR

STARTCHAR thorn
ENCODING 254
SWIDTH 516 0
DWIDTH 8 0
BBX 8 15 -1 -3
BITMAP
38
18
18
10
10
16
39
31
21
23
22
3C
60
40
F0
ENDCHAR

STARTCHAR ydieresis
ENCODING 255
SWIDTH 475 0
DWIDTH 7 0
BBX 9 14 -2 -3
BITMAP
0500
0500
0000
0000
7180
1100
1200
0A00
0C00
0C00
0800
0800
9000
E000
ENDCHAR
ENDFONT
